<svg xmlns="http://www.w3.org/2000/svg" class="fill-current" viewBox="0 0 114 91">
    <path fill="#f0ba40"
        d="M27.8,47.3a24.7,24.7,0,0,1,.3-3.9,5.1,5.1,0,0,0,.3-2,1.8,1.8,0,0,0-1.3-1L15.7,37.6c-1-.2-1.5-.3-2,.2a2.7,2.7,0,0,0-.2,1.9c.1,1.2.2,2.8.2,3.8V62.3a37,37,0,0,1-.2,4.6,5.7,5.7,0,0,0-.4,2.2c.1.8.6,1.1,1.6,1.1H26.4c.6,0,1.7.1,2-1a7.2,7.2,0,0,0-.3-2.3c-.1-.8-.3-3.4-.3-4.5Z"></path>
    <path fill="#cb3526"
        d="M31.5,23.8c-4-3.1-10.3-1.2-11.3,3.3a6.9,6.9,0,0,0,3.3,7.4A26.7,26.7,0,0,0,29.4,37a3.9,3.9,0,0,1,2.4,2.1c0,.2.1.2.2.2a18.7,18.7,0,0,0,5.5-3.7c3.5-3.5,4.3-6.7,4.1-9.4C41.1,19.6,33.4,19.2,31.5,23.8Z"></path>
    <path fill="#f0ba40"
        d="M100.9,69a1.3,1.3,0,0,1-1.3,1.1H84a1.2,1.2,0,0,1-1.2-1.3C83,67,84,60.1,84.4,57.2a116.7,116.7,0,0,0,1-14c-.2-4-1.2-8.8-4.7-8.8s-4.6,3.3-4.8,7.6a107.5,107.5,0,0,0,.2,11.4c.3,4.7.6,11.7.6,15.5a1.3,1.3,0,0,1-1.3,1.4H62.9a1.1,1.1,0,0,1-1.2-1.4c.1-3.4.3-11,.4-17.4,0-3.9-1.7-8.1-4.7-7.7s-4.6,4-4.8,7.2a44.6,44.6,0,0,0,1,8.6A51.9,51.9,0,0,1,55.3,69a1.1,1.1,0,0,1-1.2,1.2H38.7a1.3,1.3,0,0,1-1.5-1.4,7.4,7.4,0,0,1,.3-1.9,36.7,36.7,0,0,0,.3-4V47a24.7,24.7,0,0,0-.3-3.4c-.1-.6-.3-1.3-.3-1.6a1.2,1.2,0,0,1,.8-1.4c1.3-.6,8.1-2.8,11.5-4,1-.3,2-.1,2.2.8a8.1,8.1,0,0,1,.1,1.6,12.8,12.8,0,0,1,13.6-1.4c3.1-8.2,8.4-12.7,15.5-12.7S94.5,32,96.8,39.6a89.3,89.3,0,0,1,2.8,15.2c.4,5.2.8,10.3,1,12.3A9.5,9.5,0,0,1,100.9,69Z"></path>
</svg>